<?xml version="1.0" encoding="UTF-8"?><svg xmlns="http://www.w3.org/2000/svg" xmlns:xlink="http://www.w3.org/1999/xlink" height="414.6" preserveAspectRatio="xMidYMid meet" version="1.0" viewBox="0.0 0.0 500.0 414.6" width="500.0" zoomAndPan="magnify"><linearGradient gradientUnits="userSpaceOnUse" id="a" x1="179.75" x2="433.065" xlink:actuate="onLoad" xlink:show="other" xlink:type="simple" xmlns:xlink="http://www.w3.org/1999/xlink" y1="238.45" y2="-14.865"><stop offset="0" stop-color="#787ff6" stop-opacity="0"/><stop offset=".145" stop-color="#787ff6" stop-opacity=".145"/><stop offset="1" stop-color="#787ff6"/></linearGradient><path d="M0.074,58.774L0,58.52L199.918,0l0.074,0.254L0.074,58.774z M202.062,0.611l-0.077-0.252L2.503,60.975 l0.077,0.252L202.062,0.611z M204.132,0.969l-0.079-0.252L5.007,63.43l0.079,0.252L204.132,0.969z M206.201,1.326l-0.082-0.251 L7.51,65.884l0.082,0.251L206.201,1.326z M208.271,1.684l-0.085-0.25L10.013,68.339l0.085,0.25L208.271,1.684z M210.341,2.041 l-0.087-0.249L12.516,70.794l0.087,0.249L210.341,2.041z M212.411,2.398l-0.089-0.248L15.02,73.249l0.089,0.248L212.411,2.398z M214.48,2.756l-0.092-0.247L17.523,75.703l0.092,0.247L214.48,2.756z M216.55,3.114l-0.094-0.247L20.026,78.158l0.094,0.247 L216.55,3.114z M218.62,3.471l-0.097-0.245L22.53,80.613l0.097,0.245L218.62,3.471z M220.689,3.828l-0.1-0.245L25.033,83.067 l0.1,0.245L220.689,3.828z M222.759,4.186l-0.102-0.243L27.536,85.522l0.102,0.243L222.759,4.186z M224.829,4.543L224.724,4.3 L30.04,87.977l0.104,0.243L224.829,4.543z M226.898,4.9l-0.107-0.241L32.543,90.432l0.107,0.241L226.898,4.9z M228.968,5.258 l-0.109-0.241L35.046,92.886l0.109,0.241L228.968,5.258z M231.037,5.615l-0.111-0.239L37.549,95.341l0.111,0.239L231.037,5.615z M233.107,5.973l-0.113-0.238L40.053,97.796l0.113,0.238L233.107,5.973z M235.177,6.33l-0.116-0.237L42.556,100.251l0.116,0.237 L235.177,6.33z M237.246,6.687l-0.118-0.236L45.06,102.706l0.118,0.236L237.246,6.687z M239.315,7.045l-0.12-0.235L47.563,105.16 l0.12,0.235L239.315,7.045z M241.385,7.402l-0.123-0.234L50.066,107.615l0.123,0.234L241.385,7.402z M243.455,7.759l-0.125-0.232 L52.57,110.07l0.125,0.232L243.455,7.759z M245.524,8.116l-0.127-0.231L55.073,112.525l0.127,0.232L245.524,8.116z M247.594,8.474 l-0.129-0.23L57.577,114.98l0.129,0.23L247.594,8.474z M249.663,8.831l-0.131-0.229L60.08,117.435l0.131,0.229L249.663,8.831z M251.733,9.188l-0.133-0.227L62.584,119.89l0.133,0.227L251.733,9.188z M253.802,9.546l-0.135-0.226L65.088,122.345l0.135,0.226 L253.802,9.546z M255.871,9.903l-0.137-0.225L67.591,124.799l0.137,0.225L255.871,9.903z M257.941,10.26l-0.139-0.224 L70.094,127.254l0.14,0.224L257.941,10.26z M260.01,10.618l-0.142-0.223L72.598,129.709l0.142,0.223L260.01,10.618z M262.08,10.975 l-0.144-0.221L75.102,132.164l0.144,0.221L262.08,10.975z M264.149,11.332l-0.146-0.22L77.605,134.619l0.146,0.22L264.149,11.332z M266.219,11.689l-0.148-0.219L80.108,137.074l0.148,0.219L266.219,11.689z M268.288,12.046l-0.15-0.217l-185.526,127.7l0.15,0.217 L268.288,12.046z M270.357,12.404l-0.152-0.216L85.116,141.984l0.152,0.216L270.357,12.404z M272.427,12.761l-0.153-0.214 L87.619,144.439l0.153,0.215L272.427,12.761z M274.496,13.118l-0.155-0.214L90.123,146.893l0.155,0.214L274.496,13.118z M276.566,13.476l-0.157-0.212L92.627,149.348l0.157,0.212L276.566,13.476z M278.635,13.833l-0.159-0.211L95.13,151.803l0.159,0.211 L278.635,13.833z M280.704,14.19l-0.161-0.21L97.634,154.258l0.161,0.21L280.704,14.19z M282.773,14.547l-0.162-0.208 L100.138,156.713l0.162,0.208L282.773,14.547z M284.843,14.905l-0.164-0.207l-182.037,144.47l0.164,0.207L284.843,14.905z M286.912,15.262l-0.166-0.205L105.145,161.623l0.166,0.205L286.912,15.262z M288.981,15.619l-0.168-0.204L107.648,164.078 l0.168,0.204L288.981,15.619z M291.05,15.976l-0.169-0.203L110.152,166.533l0.169,0.203L291.05,15.976z M293.12,16.333l-0.17-0.201 L112.656,168.988l0.17,0.201L293.12,16.333z M295.189,16.691l-0.172-0.2L115.16,171.443l0.172,0.2L295.189,16.691z M297.258,17.048 l-0.174-0.199L117.664,173.898l0.174,0.199L297.258,17.048z M299.327,17.405l-0.175-0.197L120.167,176.353l0.175,0.197 L299.327,17.405z M301.396,17.762l-0.177-0.196L122.671,178.808l0.177,0.196L301.396,17.762z M303.466,18.12l-0.179-0.194 L125.175,181.263l0.179,0.194L303.466,18.12z M305.535,18.477l-0.18-0.193L127.679,183.718l0.18,0.193L305.535,18.477z M307.604,18.834l-0.181-0.192l-177.24,167.53l0.181,0.192L307.604,18.834z M309.673,19.191l-0.183-0.19L132.686,188.627l0.183,0.19 L309.673,19.191z M311.742,19.548l-0.184-0.189L135.19,191.082l0.184,0.189L311.742,19.548z M313.811,19.906l-0.186-0.188 L137.694,193.537l0.186,0.188L313.811,19.906z M315.88,20.263l-0.187-0.186L140.198,195.992l0.187,0.186L315.88,20.263z M317.95,20.62l-0.188-0.185L142.702,198.447l0.188,0.185L317.95,20.62z M320.019,20.977l-0.19-0.183L145.206,200.902l0.19,0.183 L320.019,20.977z M322.088,21.335l-0.191-0.182L147.709,203.357l0.191,0.182L322.088,21.335z M324.157,21.692l-0.192-0.181 L150.214,205.812l0.192,0.181L324.157,21.692z M326.226,22.049l-0.193-0.18L152.718,208.267l0.193,0.18L326.226,22.049z M328.295,22.407l-0.194-0.179L155.221,210.721l0.194,0.179L328.295,22.407z M330.364,22.764l-0.196-0.177l-172.443,190.59 l0.196,0.177L330.364,22.764z M332.433,23.121l-0.197-0.176L160.23,215.631l0.197,0.176L332.433,23.121z M334.502,23.478 l-0.198-0.175L162.733,218.086l0.198,0.175L334.502,23.478z M336.571,23.835l-0.199-0.173L165.237,220.541l0.199,0.173 L336.571,23.835z M338.64,24.193l-0.2-0.172L167.741,222.996l0.2,0.172L338.64,24.193z M340.709,24.55l-0.201-0.17L170.245,225.451 l0.201,0.17L340.709,24.55z M342.778,24.907l-0.203-0.169L172.749,227.906l0.203,0.169L342.778,24.907z M344.847,25.264 l-0.203-0.168l-169.39,205.265l0.203,0.168L344.847,25.264z M346.916,25.622l-0.205-0.167L177.757,232.816l0.205,0.167 L346.916,25.622z M348.985,25.979l-0.205-0.166L180.261,235.271l0.205,0.166L348.985,25.979z M351.054,26.336l-0.207-0.164 L182.765,237.725l0.207,0.164L351.054,26.336z M353.122,26.694l-0.208-0.163L185.269,240.18l0.208,0.163L353.122,26.694z M355.191,27.051l-0.209-0.161l-167.21,215.746l0.209,0.161L355.191,27.051z M357.26,27.408l-0.21-0.16L190.277,245.09l0.21,0.16 L357.26,27.408z M359.329,27.766l-0.21-0.159L192.781,247.545l0.21,0.159L359.329,27.766z M361.398,28.123l-0.212-0.158L195.286,250 l0.212,0.158L361.398,28.123z M363.467,28.48l-0.212-0.157L197.79,252.455l0.212,0.157L363.467,28.48z M365.536,28.837l-0.213-0.155 L200.294,254.91l0.213,0.155L365.536,28.837z M367.605,29.195l-0.214-0.155L202.798,257.364l0.214,0.155L367.605,29.195z M369.674,29.552l-0.215-0.153L205.302,259.819l0.215,0.153L369.674,29.552z M371.742,29.909l-0.216-0.152l-163.72,232.517 l0.216,0.152L371.742,29.909z M373.811,30.266l-0.216-0.15L210.31,264.729l0.216,0.15L373.811,30.266z M375.88,30.624l-0.217-0.15 l-162.848,236.71l0.217,0.15L375.88,30.624z M377.949,30.981l-0.219-0.148L215.318,269.639l0.219,0.148L377.949,30.981z M380.018,31.338l-0.219-0.147L217.822,272.094l0.219,0.147L380.018,31.338z M382.086,31.696l-0.22-0.146l-161.54,242.998 l0.22,0.146L382.086,31.696z M384.155,32.053l-0.221-0.145L222.831,277.003l0.221,0.145L384.155,32.053z M386.224,32.41 l-0.221-0.144L225.335,279.458l0.221,0.144L386.224,32.41z M388.293,32.768l-0.222-0.143L227.839,281.913l0.222,0.143 L388.293,32.768z M390.362,33.125l-0.223-0.142L230.344,284.368l0.223,0.142L390.362,33.125z M392.43,33.482l-0.223-0.14 l-159.359,253.48l0.223,0.14L392.43,33.482z M394.499,33.84l-0.224-0.139L235.352,289.277l0.224,0.139L394.499,33.84z M396.568,34.197l-0.225-0.138L237.856,291.732l0.225,0.138L396.568,34.197z M398.637,34.555l-0.225-0.137L240.36,294.187 l0.225,0.137L398.637,34.555z M400.705,34.912l-0.226-0.136L242.864,296.642l0.226,0.136L400.705,34.912z M402.774,35.269 l-0.227-0.135L245.369,299.097l0.227,0.135L402.774,35.269z M404.843,35.627l-0.227-0.134L247.873,301.551l0.227,0.134 L404.843,35.627z M406.912,35.984l-0.228-0.133L250.377,304.006l0.228,0.133L406.912,35.984z M408.98,36.341l-0.229-0.132 l-155.87,270.251l0.229,0.132L408.98,36.341z M411.049,36.699l-0.229-0.131L255.386,308.916l0.229,0.131L411.049,36.699z M413.118,37.056l-0.23-0.13L257.89,311.37l0.23,0.13L413.118,37.056z M415.186,37.413l-0.23-0.129l-154.562,276.54l0.23,0.129 L415.186,37.413z M417.255,37.771l-0.231-0.128L262.898,316.28l0.231,0.128L417.255,37.771z M419.324,38.128l-0.232-0.126 l-153.69,280.733l0.232,0.126L419.324,38.128z M421.393,38.486l-0.232-0.126L267.907,321.189l0.232,0.126L421.393,38.486z M423.461,38.843l-0.232-0.125L270.411,323.644l0.232,0.125L423.461,38.843z M425.53,39.201l-0.233-0.124L272.916,326.099 l0.233,0.124L425.53,39.201z M427.599,39.558l-0.234-0.123L275.42,328.554l0.234,0.123L427.599,39.558z M429.667,39.915 l-0.234-0.122L277.924,331.008l0.234,0.122L429.667,39.915z M431.736,40.273l-0.234-0.121L280.428,333.463l0.234,0.121 L431.736,40.273z M433.805,40.63l-0.235-0.12L282.933,335.918l0.235,0.12L433.805,40.63z M435.873,40.988l-0.236-0.119 L285.437,338.373l0.236,0.119L435.873,40.988z M437.942,41.345l-0.236-0.118l-149.764,299.6l0.236,0.118L437.942,41.345z M440.011,41.702l-0.236-0.117L290.446,343.282l0.236,0.117L440.011,41.702z M442.079,42.06l-0.237-0.116L292.95,345.737 l0.237,0.116L442.079,42.06z M444.148,42.418l-0.237-0.115L295.454,348.191l0.237,0.115L444.148,42.418z M446.217,42.775 l-0.238-0.114l-148.02,307.985l0.238,0.114L446.217,42.775z M448.285,43.132l-0.238-0.113L300.463,353.101l0.238,0.113 L448.285,43.132z M450.354,43.49l-0.238-0.113L302.967,355.555l0.238,0.113L450.354,43.49z M452.422,43.847l-0.239-0.111 L305.471,358.01l0.239,0.111L452.422,43.847z M454.491,44.205l-0.24-0.111L307.976,360.465l0.24,0.111L454.491,44.205z M456.56,44.562l-0.24-0.11L310.48,362.92l0.24,0.11L456.56,44.562z M458.628,44.92l-0.241-0.109L312.984,365.374l0.241,0.109 L458.628,44.92z M460.697,45.277l-0.241-0.108l-144.968,322.66l0.241,0.108L460.697,45.277z M462.766,45.635l-0.241-0.107 L317.993,370.284l0.241,0.107L462.766,45.635z M464.834,45.992l-0.241-0.107L320.498,372.738l0.241,0.107L464.834,45.992z M466.903,46.35l-0.242-0.106L323.002,375.193l0.242,0.106L466.903,46.35z M468.971,46.708l-0.242-0.105L325.507,377.648 l0.242,0.105L468.971,46.708z M471.04,47.065l-0.243-0.104L328.011,380.103l0.243,0.104L471.04,47.065z M473.108,47.422 l-0.243-0.103L330.515,382.557l0.243,0.103L473.108,47.422z M475.177,47.78l-0.243-0.102L333.019,385.012l0.243,0.102L475.177,47.78 z M477.246,48.137l-0.243-0.102L335.524,387.466l0.243,0.102L477.246,48.137z M479.314,48.495l-0.244-0.101L338.028,389.921 l0.244,0.101L479.314,48.495z M481.383,48.852l-0.244-0.1L340.533,392.376l0.244,0.1L481.383,48.852z M483.452,49.21l-0.245-0.099 l-140.17,345.72l0.245,0.099L483.452,49.21z M485.52,49.567l-0.245-0.098L345.541,397.285l0.245,0.098L485.52,49.567z M487.589,49.925l-0.245-0.098L348.045,399.74l0.245,0.098L487.589,49.925z M489.657,50.282l-0.245-0.097L350.55,402.194 l0.245,0.097L489.657,50.282z M491.726,50.64l-0.246-0.096L353.054,404.649l0.246,0.096L491.726,50.64z M493.794,50.998 l-0.246-0.096l-137.99,356.201l0.246,0.096L493.794,50.998z M495.863,51.355l-0.247-0.095L358.063,409.558l0.247,0.095 L495.863,51.355z M497.932,51.713l-0.247-0.094L360.568,412.013l0.247,0.094L497.932,51.713z M500,52.07l-0.247-0.093 l-136.681,362.49l0.247,0.093L500,52.07z" fill="url(#a)"/><linearGradient gradientUnits="userSpaceOnUse" id="b" x1="179.75" x2="433.065" xlink:actuate="onLoad" xlink:show="other" xlink:type="simple" xmlns:xlink="http://www.w3.org/1999/xlink" y1="238.45" y2="-14.865"><stop offset="0" stop-color="#787ff6" stop-opacity="0"/><stop offset=".145" stop-color="#787ff6" stop-opacity=".145"/><stop offset="1" stop-color="#787ff6"/></linearGradient><path d="M0.074,58.774L0,58.52L199.918,0l0.074,0.254L0.074,58.774z M202.062,0.611l-0.077-0.252L2.503,60.975 l0.077,0.252L202.062,0.611z M204.132,0.969l-0.079-0.252L5.007,63.43l0.079,0.252L204.132,0.969z M206.201,1.326l-0.082-0.251 L7.51,65.884l0.082,0.251L206.201,1.326z M208.271,1.684l-0.085-0.25L10.013,68.339l0.085,0.25L208.271,1.684z M210.341,2.041 l-0.087-0.249L12.516,70.794l0.087,0.249L210.341,2.041z M212.411,2.398l-0.089-0.248L15.02,73.249l0.089,0.248L212.411,2.398z M214.48,2.756l-0.092-0.247L17.523,75.703l0.092,0.247L214.48,2.756z M216.55,3.114l-0.094-0.247L20.026,78.158l0.094,0.247 L216.55,3.114z M218.62,3.471l-0.097-0.245L22.53,80.613l0.097,0.245L218.62,3.471z M220.689,3.828l-0.1-0.245L25.033,83.067 l0.1,0.245L220.689,3.828z M222.759,4.186l-0.102-0.243L27.536,85.522l0.102,0.243L222.759,4.186z M224.829,4.543L224.724,4.3 L30.04,87.977l0.104,0.243L224.829,4.543z M226.898,4.9l-0.107-0.241L32.543,90.432l0.107,0.241L226.898,4.9z M228.968,5.258 l-0.109-0.241L35.046,92.886l0.109,0.241L228.968,5.258z M231.037,5.615l-0.111-0.239L37.549,95.341l0.111,0.239L231.037,5.615z M233.107,5.973l-0.113-0.238L40.053,97.796l0.113,0.238L233.107,5.973z M235.177,6.33l-0.116-0.237L42.556,100.251l0.116,0.237 L235.177,6.33z M237.246,6.687l-0.118-0.236L45.06,102.706l0.118,0.236L237.246,6.687z M239.315,7.045l-0.12-0.235L47.563,105.16 l0.12,0.235L239.315,7.045z M241.385,7.402l-0.123-0.234L50.066,107.615l0.123,0.234L241.385,7.402z M243.455,7.759l-0.125-0.232 L52.57,110.07l0.125,0.232L243.455,7.759z M245.524,8.116l-0.127-0.231L55.073,112.525l0.127,0.232L245.524,8.116z M247.594,8.474 l-0.129-0.23L57.577,114.98l0.129,0.23L247.594,8.474z M249.663,8.831l-0.131-0.229L60.08,117.435l0.131,0.229L249.663,8.831z M251.733,9.188l-0.133-0.227L62.584,119.89l0.133,0.227L251.733,9.188z M253.802,9.546l-0.135-0.226L65.088,122.345l0.135,0.226 L253.802,9.546z M255.871,9.903l-0.137-0.225L67.591,124.799l0.137,0.225L255.871,9.903z M257.941,10.26l-0.139-0.224 L70.094,127.254l0.14,0.224L257.941,10.26z M260.01,10.618l-0.142-0.223L72.598,129.709l0.142,0.223L260.01,10.618z M262.08,10.975 l-0.144-0.221L75.102,132.164l0.144,0.221L262.08,10.975z M264.149,11.332l-0.146-0.22L77.605,134.619l0.146,0.22L264.149,11.332z M266.219,11.689l-0.148-0.219L80.108,137.074l0.148,0.219L266.219,11.689z M268.288,12.046l-0.15-0.217l-185.526,127.7l0.15,0.217 L268.288,12.046z M270.357,12.404l-0.152-0.216L85.116,141.984l0.152,0.216L270.357,12.404z M272.427,12.761l-0.153-0.214 L87.619,144.439l0.153,0.215L272.427,12.761z M274.496,13.118l-0.155-0.214L90.123,146.893l0.155,0.214L274.496,13.118z M276.566,13.476l-0.157-0.212L92.627,149.348l0.157,0.212L276.566,13.476z M278.635,13.833l-0.159-0.211L95.13,151.803l0.159,0.211 L278.635,13.833z M280.704,14.19l-0.161-0.21L97.634,154.258l0.161,0.21L280.704,14.19z M282.773,14.547l-0.162-0.208 L100.138,156.713l0.162,0.208L282.773,14.547z M284.843,14.905l-0.164-0.207l-182.037,144.47l0.164,0.207L284.843,14.905z M286.912,15.262l-0.166-0.205L105.145,161.623l0.166,0.205L286.912,15.262z M288.981,15.619l-0.168-0.204L107.648,164.078 l0.168,0.204L288.981,15.619z M291.05,15.976l-0.169-0.203L110.152,166.533l0.169,0.203L291.05,15.976z M293.12,16.333l-0.17-0.201 L112.656,168.988l0.17,0.201L293.12,16.333z M295.189,16.691l-0.172-0.2L115.16,171.443l0.172,0.2L295.189,16.691z M297.258,17.048 l-0.174-0.199L117.664,173.898l0.174,0.199L297.258,17.048z M299.327,17.405l-0.175-0.197L120.167,176.353l0.175,0.197 L299.327,17.405z M301.396,17.762l-0.177-0.196L122.671,178.808l0.177,0.196L301.396,17.762z M303.466,18.12l-0.179-0.194 L125.175,181.263l0.179,0.194L303.466,18.12z M305.535,18.477l-0.18-0.193L127.679,183.718l0.18,0.193L305.535,18.477z M307.604,18.834l-0.181-0.192l-177.24,167.53l0.181,0.192L307.604,18.834z M309.673,19.191l-0.183-0.19L132.686,188.627l0.183,0.19 L309.673,19.191z M311.742,19.548l-0.184-0.189L135.19,191.082l0.184,0.189L311.742,19.548z M313.811,19.906l-0.186-0.188 L137.694,193.537l0.186,0.188L313.811,19.906z M315.88,20.263l-0.187-0.186L140.198,195.992l0.187,0.186L315.88,20.263z M317.95,20.62l-0.188-0.185L142.702,198.447l0.188,0.185L317.95,20.62z M320.019,20.977l-0.19-0.183L145.206,200.902l0.19,0.183 L320.019,20.977z M322.088,21.335l-0.191-0.182L147.709,203.357l0.191,0.182L322.088,21.335z M324.157,21.692l-0.192-0.181 L150.214,205.812l0.192,0.181L324.157,21.692z M326.226,22.049l-0.193-0.18L152.718,208.267l0.193,0.18L326.226,22.049z M328.295,22.407l-0.194-0.179L155.221,210.721l0.194,0.179L328.295,22.407z M330.364,22.764l-0.196-0.177l-172.443,190.59 l0.196,0.177L330.364,22.764z M332.433,23.121l-0.197-0.176L160.23,215.631l0.197,0.176L332.433,23.121z M334.502,23.478 l-0.198-0.175L162.733,218.086l0.198,0.175L334.502,23.478z M336.571,23.835l-0.199-0.173L165.237,220.541l0.199,0.173 L336.571,23.835z M338.64,24.193l-0.2-0.172L167.741,222.996l0.2,0.172L338.64,24.193z M340.709,24.55l-0.201-0.17L170.245,225.451 l0.201,0.17L340.709,24.55z M342.778,24.907l-0.203-0.169L172.749,227.906l0.203,0.169L342.778,24.907z M344.847,25.264 l-0.203-0.168l-169.39,205.265l0.203,0.168L344.847,25.264z M346.916,25.622l-0.205-0.167L177.757,232.816l0.205,0.167 L346.916,25.622z M348.985,25.979l-0.205-0.166L180.261,235.271l0.205,0.166L348.985,25.979z M351.054,26.336l-0.207-0.164 L182.765,237.725l0.207,0.164L351.054,26.336z M353.122,26.694l-0.208-0.163L185.269,240.18l0.208,0.163L353.122,26.694z M355.191,27.051l-0.209-0.161l-167.21,215.746l0.209,0.161L355.191,27.051z M357.26,27.408l-0.21-0.16L190.277,245.09l0.21,0.16 L357.26,27.408z M359.329,27.766l-0.21-0.159L192.781,247.545l0.21,0.159L359.329,27.766z M361.398,28.123l-0.212-0.158L195.286,250 l0.212,0.158L361.398,28.123z M363.467,28.48l-0.212-0.157L197.79,252.455l0.212,0.157L363.467,28.48z M365.536,28.837l-0.213-0.155 L200.294,254.91l0.213,0.155L365.536,28.837z M367.605,29.195l-0.214-0.155L202.798,257.364l0.214,0.155L367.605,29.195z M369.674,29.552l-0.215-0.153L205.302,259.819l0.215,0.153L369.674,29.552z M371.742,29.909l-0.216-0.152l-163.72,232.517 l0.216,0.152L371.742,29.909z M373.811,30.266l-0.216-0.15L210.31,264.729l0.216,0.15L373.811,30.266z M375.88,30.624l-0.217-0.15 l-162.848,236.71l0.217,0.15L375.88,30.624z M377.949,30.981l-0.219-0.148L215.318,269.639l0.219,0.148L377.949,30.981z M380.018,31.338l-0.219-0.147L217.822,272.094l0.219,0.147L380.018,31.338z M382.086,31.696l-0.22-0.146l-161.54,242.998 l0.22,0.146L382.086,31.696z M384.155,32.053l-0.221-0.145L222.831,277.003l0.221,0.145L384.155,32.053z M386.224,32.41 l-0.221-0.144L225.335,279.458l0.221,0.144L386.224,32.41z M388.293,32.768l-0.222-0.143L227.839,281.913l0.222,0.143 L388.293,32.768z M390.362,33.125l-0.223-0.142L230.344,284.368l0.223,0.142L390.362,33.125z M392.43,33.482l-0.223-0.14 l-159.359,253.48l0.223,0.14L392.43,33.482z M394.499,33.84l-0.224-0.139L235.352,289.277l0.224,0.139L394.499,33.84z M396.568,34.197l-0.225-0.138L237.856,291.732l0.225,0.138L396.568,34.197z M398.637,34.555l-0.225-0.137L240.36,294.187 l0.225,0.137L398.637,34.555z M400.705,34.912l-0.226-0.136L242.864,296.642l0.226,0.136L400.705,34.912z M402.774,35.269 l-0.227-0.135L245.369,299.097l0.227,0.135L402.774,35.269z M404.843,35.627l-0.227-0.134L247.873,301.551l0.227,0.134 L404.843,35.627z M406.912,35.984l-0.228-0.133L250.377,304.006l0.228,0.133L406.912,35.984z M408.98,36.341l-0.229-0.132 l-155.87,270.251l0.229,0.132L408.98,36.341z M411.049,36.699l-0.229-0.131L255.386,308.916l0.229,0.131L411.049,36.699z M413.118,37.056l-0.23-0.13L257.89,311.37l0.23,0.13L413.118,37.056z M415.186,37.413l-0.23-0.129l-154.562,276.54l0.23,0.129 L415.186,37.413z M417.255,37.771l-0.231-0.128L262.898,316.28l0.231,0.128L417.255,37.771z M419.324,38.128l-0.232-0.126 l-153.69,280.733l0.232,0.126L419.324,38.128z M421.393,38.486l-0.232-0.126L267.907,321.189l0.232,0.126L421.393,38.486z M423.461,38.843l-0.232-0.125L270.411,323.644l0.232,0.125L423.461,38.843z M425.53,39.201l-0.233-0.124L272.916,326.099 l0.233,0.124L425.53,39.201z M427.599,39.558l-0.234-0.123L275.42,328.554l0.234,0.123L427.599,39.558z M429.667,39.915 l-0.234-0.122L277.924,331.008l0.234,0.122L429.667,39.915z M431.736,40.273l-0.234-0.121L280.428,333.463l0.234,0.121 L431.736,40.273z M433.805,40.63l-0.235-0.12L282.933,335.918l0.235,0.12L433.805,40.63z M435.873,40.988l-0.236-0.119 L285.437,338.373l0.236,0.119L435.873,40.988z M437.942,41.345l-0.236-0.118l-149.764,299.6l0.236,0.118L437.942,41.345z M440.011,41.702l-0.236-0.117L290.446,343.282l0.236,0.117L440.011,41.702z M442.079,42.06l-0.237-0.116L292.95,345.737 l0.237,0.116L442.079,42.06z M444.148,42.418l-0.237-0.115L295.454,348.191l0.237,0.115L444.148,42.418z M446.217,42.775 l-0.238-0.114l-148.02,307.985l0.238,0.114L446.217,42.775z M448.285,43.132l-0.238-0.113L300.463,353.101l0.238,0.113 L448.285,43.132z M450.354,43.49l-0.238-0.113L302.967,355.555l0.238,0.113L450.354,43.49z M452.422,43.847l-0.239-0.111 L305.471,358.01l0.239,0.111L452.422,43.847z M454.491,44.205l-0.24-0.111L307.976,360.465l0.24,0.111L454.491,44.205z M456.56,44.562l-0.24-0.11L310.48,362.92l0.24,0.11L456.56,44.562z M458.628,44.92l-0.241-0.109L312.984,365.374l0.241,0.109 L458.628,44.92z M460.697,45.277l-0.241-0.108l-144.968,322.66l0.241,0.108L460.697,45.277z M462.766,45.635l-0.241-0.107 L317.993,370.284l0.241,0.107L462.766,45.635z M464.834,45.992l-0.241-0.107L320.498,372.738l0.241,0.107L464.834,45.992z M466.903,46.35l-0.242-0.106L323.002,375.193l0.242,0.106L466.903,46.35z M468.971,46.708l-0.242-0.105L325.507,377.648 l0.242,0.105L468.971,46.708z M471.04,47.065l-0.243-0.104L328.011,380.103l0.243,0.104L471.04,47.065z M473.108,47.422 l-0.243-0.103L330.515,382.557l0.243,0.103L473.108,47.422z M475.177,47.78l-0.243-0.102L333.019,385.012l0.243,0.102L475.177,47.78 z M477.246,48.137l-0.243-0.102L335.524,387.466l0.243,0.102L477.246,48.137z M479.314,48.495l-0.244-0.101L338.028,389.921 l0.244,0.101L479.314,48.495z M481.383,48.852l-0.244-0.1L340.533,392.376l0.244,0.1L481.383,48.852z M483.452,49.21l-0.245-0.099 l-140.17,345.72l0.245,0.099L483.452,49.21z M485.52,49.567l-0.245-0.098L345.541,397.285l0.245,0.098L485.52,49.567z M487.589,49.925l-0.245-0.098L348.045,399.74l0.245,0.098L487.589,49.925z M489.657,50.282l-0.245-0.097L350.55,402.194 l0.245,0.097L489.657,50.282z M491.726,50.64l-0.246-0.096L353.054,404.649l0.246,0.096L491.726,50.64z M493.794,50.998 l-0.246-0.096l-137.99,356.201l0.246,0.096L493.794,50.998z M495.863,51.355l-0.247-0.095L358.063,409.558l0.247,0.095 L495.863,51.355z M497.932,51.713l-0.247-0.094L360.568,412.013l0.247,0.094L497.932,51.713z M500,52.07l-0.247-0.093 l-136.681,362.49l0.247,0.093L500,52.07z" fill="url(#b)"/></svg>